<svg xmlns="http://www.w3.org/2000/svg" xmlns:xlink="http://www.w3.org/1999/xlink" width="360.00208560536055" height="102.50059381819293" viewBox="0 0 288 82" data-svgdocument="" id="svgcontent" class="fl-svgdocument" x="665.9989571973197" y="452.74970309090355"><defs id="_0uPT7tp_GUQkRQ3obqfkr" transform="matrix(0.8115485310554504, 0, 0, 0.8115485310554504, 48.4871711730957, 48.24359130859375)" data-uid="o_ek6dm6mjk_6"><linearGradient id="g__LGwIjTldLrXQuPBjlqccG" x1="85%" y1="14%" x2="14%" y2="85%" data-uid="o_ek6dm6mjk_7"><stop id="_rv9wZRA5wMgLZD6P5GGQQ" offset="0%" data-uid="o_ek6dm6mjk_8" stop-color=" rgb(22, 192, 240)"></stop><stop id="_7ruLU_3XOLjTc7yoYux0Q" offset="100%" data-uid="o_ek6dm6mjk_9" stop-color=" rgb(138, 37, 177)"></stop></linearGradient></defs><g style="pointer-events:all"><title style="pointer-events:inherit">Layer 1</title><path id="_pt4dmmnHPiXc1v5Z9Lus0" d="M51.80439245700836,12.169652938842773 C35.66632364946604,12.169652938842773 22.574055910110474,25.25607461088896 22.574055910110474,41.397066452085966 C22.574055910110474,52.15870202410224 31.299311369359486,60.883957483351196 42.06094694137573,60.883957483351196 S61.544914938986295,52.15870202410224 61.54783797264099,41.397066452085966 C61.54783797264099,34.22881358623505 55.73392403346301,28.408079235196112 48.55690206664801,28.408079235196112 C41.3828031334877,28.408079235196112 35.56499181610346,34.22881358623505 35.56499181610346,41.399015141189096 C35.56499181610346,44.9894748136997 38.473410302519795,47.89497026646137 42.06094694137573,47.89497026646137 S48.55690206664801,44.9894748136997 48.55690206664801,41.399015141189096 L42.06094694137573,41.399015141189096 C42.06094694137573,37.80855546867849 44.96936542779207,34.90306001591682 48.55690206664801,34.90306001591682 S55.05188284736872,37.80855546867849 55.05188284736872,41.399015141189096 C55.05188284736872,48.57603710800407 49.23504587453604,54.38995104718208 42.06094694137573,54.38995104718208 S29.07001103538275,48.577011452555666 29.07001103538275,41.39998948574066 C29.07001103538275,30.64127694737911 37.79526649463176,21.913098454475403 48.55690206664801,21.913098454475403 C59.321460672318935,21.913098454475403 68.039895719707,30.638353913724416 68.04379309791327,41.397066452085966 L68.04379309791327,41.39316907387973 L68.04379309791327,41.39998948574066 L68.04379309791327,41.397066452085966 C68.039895719707,55.74623866295815 56.410119152247916,67.37893826407196 42.06094694137573,67.37893826407196 S16.0781007848382,55.74623866295815 16.0781007848382,41.397066452085966 L16.0781007848382,41.39998948574066 L16.0781007848382,41.39316907387973 L16.0781007848382,41.397066452085966 C16.0781007848382,21.668537972033022 32.07683832150698,5.673697813570499 51.80439245700836,5.673697813570499 C54.36107256031036,5.673697813570499 56.8505228895545,5.95236035531758 59.25423089826107,6.463891244888316 C54.06194878298044,3.9042881079316203 48.239265742838384,2.426207423210144 42.06094694137573,2.426207423210144 C20.537675797343255,2.426207423210144 3.087164878845215,19.87671834170817 3.087164878845215,41.39998948574066 S20.537675797343255,80.37377154827118 42.06094694137573,80.37377154827118 S81.03472900390625,62.923260629773154 81.03472900390625,41.39998948574066 C81.03472900390625,40.3915428748727 80.95873012888431,39.40160881048439 80.88273125386237,38.412649090647704 C79.38613802266121,23.673739059150222 66.9398607209921,12.169652938842773 51.80439245700836,12.169652938842773 z" fill="url(#g__LGwIjTldLrXQuPBjlqccG)" data-uid="o_ek6dm6mjk_10"></path><path text="equal soc" text-anchor="start" font-size="100" letter-spacing="0" side="left" offset="0" dx="0" dy="0" space="preserve" href="" font-family="Signika" font-scale="contain" x="0" y="0" fill="#343f4d" data-fl-textpath="" id="_KZwpPj0qQZQrMjsukiYYg" data-uid="o_ek6dm6mjk_11" d="M108.61116468906403,45.98158320784569 L108.61116468906403,45.98158320784569 L94.0930447280407,45.98158320784569 Q94.24118880927563,49.38889707624912 95.54979486018419,51.21600741147995 Q96.85840091109276,53.04311774671078 99.96942661702633,53.04311774671078 L99.96942661702633,53.04311774671078 Q101.45086742937565,53.04311774671078 103.15452436357737,52.59868550300598 Q104.85818129777908,52.154253259301186 106.68529163300991,51.166626051068306 L106.68529163300991,51.166626051068306 Q107.91982564330101,52.30239734053612 108.31487652659416,54.42579583823681 L108.31487652659416,54.42579583823681 Q104.36436769366264,57.19115202128887 99.0311807692051,57.19115202128887 L99.0311807692051,57.19115202128887 Q96.21644322574139,57.19115202128887 94.29057016968727,56.20352481305599 Q92.36469711363316,55.21589760482311 91.15485378354788,53.48754999041557 Q89.9450104534626,51.759202376008034 89.40181548893452,49.3642063960433 Q88.85862052440643,46.96921041607857 88.85862052440643,44.203854233026505 L88.85862052440643,44.203854233026505 Q88.85862052440643,41.487879410386086 89.54995957016945,39.142264790832996 Q90.24129861593246,36.79665017127991 91.52521398663521,35.11768391728401 Q92.80912935733795,33.43871766328812 94.71031173318624,32.47578113526106 Q96.61149410903454,31.512844607234 98.98179940879345,31.512844607234 L98.98179940879345,31.512844607234 Q101.35210470855236,31.512844607234 103.20390572398901,32.302946373820305 Q105.05570673942566,33.09304814040661 106.3396221101284,34.50041691213846 Q107.62353748083115,35.907785683870316 108.29018584638834,37.85834942013025 Q108.95683421194553,39.80891315639019 108.95683421194553,42.08045573532581 L108.95683421194553,42.08045573532581 Q108.95683421194553,43.06808294355869 108.88276217132807,44.03101947158575 Q108.8086901307106,44.99395599961281 108.61116468906403,45.98158320784569 zM99.12994349002838,35.31520935893059 L99.12994349002838,35.31520935893059 Q94.4387142509222,35.31520935893059 94.0930447280407,42.27798117697239 L94.0930447280407,42.27798117697239 L104.06807953119278,42.27798117697239 L104.06807953119278,41.63602349162102 Q104.06807953119278,38.82128594815731 102.8582362011075,37.06824765354395 Q101.64839287102222,35.31520935893059 99.12994349002838,35.31520935893059 zM128.65999701619148,63.90701703727245 L128.65999701619148,63.90701703727245 L128.65999701619148,54.42579583823681 Q125.79587811231613,56.993626579642296 121.84536927938461,56.993626579642296 L121.84536927938461,56.993626579642296 Q117.94424180686474,56.993626579642296 115.74677126854658,53.58631271123886 Q113.54930073022842,50.178998842835426 113.54930073022842,44.203854233026505 L113.54930073022842,44.203854233026505 Q113.54930073022842,41.19159124791622 114.3147118166089,38.84597662836313 Q115.08012290298939,36.50036200881004 116.38872895389795,34.87077711522579 Q117.69733500480652,33.24119222164154 119.40099193900824,32.37701841443777 Q121.10464887320995,31.512844607234 123.03052192926407,31.512844607234 L123.03052192926407,31.512844607234 Q126.83288668096066,31.512844607234 129.74638694524765,34.031293988227844 L129.74638694524765,34.031293988227844 Q130.9315395951271,32.35232773423195 133.10431945323944,31.809132769703865 L133.10431945323944,31.809132769703865 Q133.69689577817917,32.15480229258537 134.26478142291307,32.94490405917168 Q134.83266706764698,33.73500582575798 135.03019250929356,34.426344871520996 L135.03019250929356,34.426344871520996 Q133.64751441776752,35.660878881812096 133.64751441776752,39.117574110627174 L133.64751441776752,39.117574110627174 L133.64751441776752,66.86989866197109 L133.35122625529766,67.16618682444096 L131.42535319924355,67.16618682444096 Q129.84514966607094,67.16618682444096 129.2525733411312,66.4254664182663 Q128.65999701619148,65.68474601209164 128.65999701619148,63.90701703727245 zM123.178666010499,52.74682958424091 L123.178666010499,52.74682958424091 Q126.24031035602093,52.74682958424091 128.65999701619148,49.88271068036556 L128.65999701619148,49.88271068036556 L128.65999701619148,37.78427737951279 Q126.092166274786,35.61149752140045 123.87000505626202,35.61149752140045 L123.87000505626202,35.61149752140045 Q121.5984624773264,35.61149752140045 120.16640302538872,37.80896805971861 Q118.73434357345104,40.006438598036766 118.73434357345104,44.35199831426144 L118.73434357345104,44.35199831426144 Q118.73434357345104,48.64817667007446 119.99356826394796,50.69750312715769 Q121.25279295444489,52.74682958424091 123.178666010499,52.74682958424091 zM141.1534812003374,48.89508347213268 L141.1534812003374,48.89508347213268 L141.1534812003374,37.389226496219635 Q141.1534812003374,34.426344871520996 140.31399807333946,32.94490405917168 L140.31399807333946,32.94490405917168 Q141.54853208363056,31.85851413011551 143.52378650009632,31.85851413011551 L143.52378650009632,31.85851413011551 Q146.23976132273674,31.85851413011551 146.23976132273674,35.06830255687237 L146.23976132273674,35.06830255687237 L146.23976132273674,47.66054946184158 Q146.23976132273674,50.22838020324707 146.8817190080881,51.31477013230324 Q147.52367669343948,52.401160061359406 149.15326158702374,52.401160061359406 Q150.782846480608,52.401160061359406 152.46181273460388,51.58636761456728 Q154.14077898859978,50.771575167775154 155.47407571971416,49.38889707624912 L155.47407571971416,49.38889707624912 L155.47407571971416,32.15480229258537 Q156.8567538112402,31.957276850938797 157.992525100708,31.957276850938797 Q159.12829639017582,31.957276850938797 160.60973720252514,32.15480229258537 L160.60973720252514,32.15480229258537 L160.60973720252514,49.63580387830734 Q160.60973720252514,53.09249910712242 161.99241529405117,54.32703311741352 L161.99241529405117,54.32703311741352 Q161.4492203295231,56.104762092232704 160.06654223799706,56.89486385881901 L160.06654223799706,56.89486385881901 Q156.95551653206348,56.351668894290924 155.91850796341896,53.33940590918064 L155.91850796341896,53.33940590918064 Q152.06676185131073,56.993626579642296 147.67182077467442,56.993626579642296 L147.67182077467442,56.993626579642296 Q144.4126509875059,56.993626579642296 142.78306609392166,54.77146536111832 Q141.1534812003374,52.54930414259434 141.1534812003374,48.89508347213268 zM187.2756718248129,54.27765175700188 L187.2756718248129,54.27765175700188 Q186.68309549987316,56.05538073182106 185.34979876875877,56.89486385881901 L185.34979876875877,56.89486385881901 Q182.43629850447178,56.351668894290924 181.39928993582726,53.83321951329708 L181.39928993582726,53.83321951329708 Q177.89321334660053,57.19115202128887 174.18961131572723,57.19115202128887 L174.18961131572723,57.19115202128887 Q172.31311962008476,57.19115202128887 170.9057508483529,56.598575696349144 Q169.49838207662106,56.005999371409416 168.535445548594,54.993681482970715 Q167.57250902056694,53.98136359453201 167.10338609665632,52.67275754362345 Q166.6342631727457,51.36415149271488 166.6342631727457,49.932092040777206 L166.6342631727457,49.932092040777206 Q166.6342631727457,45.8828204870224 169.226784594357,43.80880334973335 Q171.81930601596832,41.734786212444305 176.11548437178135,41.734786212444305 L176.11548437178135,41.734786212444305 Q177.35001838207245,41.734786212444305 178.5351710319519,41.80885825306177 Q179.72032368183136,41.88293029367924 180.85609497129917,42.08045573532581 L180.85609497129917,42.08045573532581 L180.85609497129917,40.1545826792717 Q180.85609497129917,35.759641602635384 176.80682341754436,35.759641602635384 L176.80682341754436,35.759641602635384 Q173.99208587408066,35.759641602635384 169.05394983291626,37.636133298277855 L169.05394983291626,37.636133298277855 Q167.62189038097858,36.401599287986755 167.57250902056694,33.932531267404556 L167.57250902056694,33.932531267404556 Q172.60940778255463,31.660988688468933 177.79445062577724,31.660988688468933 L177.79445062577724,31.660988688468933 Q181.64619673788548,31.660988688468933 183.76959523558617,33.71031514555216 Q185.89299373328686,35.759641602635384 185.89299373328686,39.90767587721348 L185.89299373328686,39.90767587721348 L185.89299373328686,50.030854761600494 Q185.89299373328686,53.09249910712242 187.2756718248129,54.27765175700188 zM175.02909444272518,53.141880467534065 L175.02909444272518,53.141880467534065 Q178.1895015090704,53.141880467534065 180.85609497129917,50.178998842835426 L180.85609497129917,50.178998842835426 L180.85609497129917,45.48776960372925 Q179.8684677630663,45.38900688290596 178.78207783401012,45.339625522494316 Q177.69568790495396,45.29024416208267 176.5105352550745,45.29024416208267 L176.5105352550745,45.29024416208267 Q174.23899267613888,45.29024416208267 172.97976798564196,46.40132477134466 Q171.72054329514503,47.51240538060665 171.72054329514503,49.33951571583748 L171.72054329514503,49.33951571583748 Q171.72054329514503,51.11724469065666 172.60940778255463,52.129562579095364 Q173.49827226996422,53.141880467534065 175.02909444272518,53.141880467534065 zM200.26296961307526,52.74682958424091 L200.26296961307526,52.74682958424091 L202.09007994830608,52.74682958424091 Q202.53451219201088,53.98136359453201 202.53451219201088,54.91960944235325 Q202.53451219201088,55.857855290174484 202.38636811077595,56.40105025470257 L202.38636811077595,56.40105025470257 Q200.4111136943102,56.746719777584076 198.1889524757862,56.746719777584076 L198.1889524757862,56.746719777584076 Q193.30019779503345,56.746719777584076 193.30019779503345,51.660439655184746 L193.30019779503345,51.660439655184746 L193.30019779503345,20.550182595849037 L193.64586731791496,20.253894433379173 L195.57174037396908,20.253894433379173 Q197.10256254673004,20.253894433379173 197.7198295518756,21.019305519759655 Q198.33709655702114,21.784716606140137 198.33709655702114,23.513064220547676 L198.33709655702114,23.513064220547676 L198.33709655702114,50.524668365716934 Q198.33709655702114,52.74682958424091 200.26296961307526,52.74682958424091 zM216.46005582809448,54.72208400070667 L216.46005582809448,54.72208400070667 Q216.50943718850613,53.882600873708725 217.00325079262257,52.82090162485838 Q217.497064396739,51.759202376008034 218.13902208209038,51.166626051068306 L218.13902208209038,51.166626051068306 Q222.0895309150219,53.33940590918064 224.5585989356041,53.33940590918064 L224.5585989356041,53.33940590918064 Q227.07704831659794,53.33940590918064 228.28689164668322,52.49992278218269 Q229.4967349767685,51.660439655184746 229.4967349767685,50.277761563658714 L229.4967349767685,50.277761563658714 Q229.4967349767685,48.10498170554638 226.38570927083492,46.91982905566692 L226.38570927083492,46.91982905566692 L223.62035308778286,45.8828204870224 Q217.34892031550407,43.51251518726349 217.34892031550407,38.82128594815731 L217.34892031550407,38.82128594815731 Q217.34892031550407,35.413972079753876 219.79329765588045,33.46340834349394 Q222.23767499625683,31.512844607234 226.18818382918835,31.512844607234 L226.18818382918835,31.512844607234 Q230.1880740225315,31.512844607234 234.13858285546303,33.290573582053185 L234.13858285546303,33.290573582053185 Q234.13858285546303,34.278200790286064 233.71884129196405,35.36459071934223 Q233.29909972846508,36.4509806483984 232.60776068270206,37.04355697333813 L232.60776068270206,37.04355697333813 Q229.10168409347534,35.413972079753876 226.04003974795341,35.413972079753876 L226.04003974795341,35.413972079753876 Q224.41045485436916,35.413972079753876 223.4475183263421,36.20407384634018 Q222.48458179831505,36.99417561292648 222.48458179831505,38.17932826280594 L222.48458179831505,38.17932826280594 Q222.48458179831505,39.364480912685394 223.2006115242839,40.006438598036766 Q223.91664125025272,40.64839628338814 225.54622614383698,41.29035396873951 L225.54622614383698,41.29035396873951 L228.5091077685356,42.42612525820732 Q234.7805405408144,44.845811918377876 234.7805405408144,49.83332931995392 L234.7805405408144,49.83332931995392 Q234.7805405408144,53.24064318835735 232.16332843899727,55.21589760482311 Q229.54611633718014,57.19115202128887 225.05241253972054,57.19115202128887 L225.05241253972054,57.19115202128887 Q220.55870874226093,57.19115202128887 216.46005582809448,54.72208400070667 zM256.5577204823494,54.47517719864845 L256.5577204823494,54.47517719864845 Q253.84174565970898,57.19115202128887 249.39742322266102,57.19115202128887 L249.39742322266102,57.19115202128887 Q246.82959248125553,57.19115202128887 244.85433806478977,56.27759685367346 Q242.879083648324,55.364041686058044 241.5210962370038,53.66038475185633 Q240.1631088256836,51.95672781765461 239.44707909971476,49.61111319810152 Q238.73104937374592,47.26549857854843 238.73104937374592,44.35199831426144 L238.73104937374592,44.35199831426144 Q238.73104937374592,41.487879410386086 239.44707909971476,39.117574110627174 Q240.1631088256836,36.74726881086826 241.5210962370038,35.043611876666546 Q242.879083648324,33.33995494246483 244.85433806478977,32.426399774849415 Q246.82959248125553,31.512844607234 249.39742322266102,31.512844607234 L249.39742322266102,31.512844607234 Q251.9652539640665,31.512844607234 253.94050838053226,32.426399774849415 Q255.91576279699802,33.33995494246483 257.27375020831823,35.043611876666546 Q258.63173761963844,36.74726881086826 259.3477673456073,39.117574110627174 Q260.0637970715762,41.487879410386086 260.0637970715762,44.35199831426144 L260.0637970715762,44.35199831426144 Q260.0637970715762,50.96910060942173 256.5577204823494,54.47517719864845 zM249.39742322266102,35.413972079753876 L249.39742322266102,35.413972079753876 Q244.01485493779182,35.413972079753876 244.01485493779182,44.35199831426144 L244.01485493779182,44.35199831426144 Q244.01485493779182,53.290024548769 249.39742322266102,53.290024548769 L249.39742322266102,53.290024548769 Q254.82937286794186,53.290024548769 254.82937286794186,44.35199831426144 L254.82937286794186,44.35199831426144 Q254.82937286794186,35.413972079753876 249.39742322266102,35.413972079753876 zM278.97685810923576,41.58664213120937 L278.97685810923576,41.58664213120937 L278.97685810923576,41.04344716668129 Q278.97685810923576,35.46335344016552 274.6312983930111,35.46335344016552 L274.6312983930111,35.46335344016552 Q272.2609930932522,35.46335344016552 270.97707772254944,37.73489601910114 Q269.6931623518467,40.006438598036766 269.6931623518467,44.50014239549637 L269.6931623518467,44.50014239549637 Q269.6931623518467,52.99373638629913 275.27325607836246,52.99373638629913 L275.27325607836246,52.99373638629913 Q278.0386122614145,52.99373638629913 281.2484006881714,50.524668365716934 L281.2484006881714,50.524668365716934 Q281.9397397339344,50.919719249010086 282.5816974192858,51.80858373641968 Q283.22365510463715,52.69744822382927 283.4211805462837,53.53693135082722 L283.4211805462837,53.53693135082722 Q279.76695987582207,57.19115202128887 274.58191703259945,57.19115202128887 L274.58191703259945,57.19115202128887 Q271.9647049307823,57.19115202128887 270.063522554934,56.228215493261814 Q268.16234017908573,55.26527896523476 266.9031154885888,53.53693135082722 Q265.6438907980919,51.80858373641968 265.02662379294634,49.38889707624912 Q264.4093567878008,46.96921041607857 264.4093567878008,44.05571015179157 L264.4093567878008,44.05571015179157 Q264.4093567878008,41.04344716668129 265.24883991479874,38.6978325471282 Q266.0883230417967,36.35221792757511 267.49569181352854,34.772014394402504 Q268.9030605852604,33.1918108612299 270.75486160069704,32.35232773423195 Q272.6066626161337,31.512844607234 274.68067975342274,31.512844607234 L274.68067975342274,31.512844607234 Q276.8040782511234,31.512844607234 278.4583538249135,32.15480229258537 Q280.1126293987036,32.796759977936745 281.2730913683772,33.83376854658127 Q282.43355333805084,34.87077711522579 283.0508203431964,36.228764526546 Q283.66808734834194,37.58675193786621 283.66808734834194,38.96943002939224 L283.66808734834194,38.96943002939224 Q283.66808734834194,41.78416757285595 281.10025660693645,41.78416757285595 L281.10025660693645,41.78416757285595 Q279.8163412362337,41.78416757285595 278.97685810923576,41.58664213120937 z"></path></g></svg>